<svg width="32" height="32" viewBox="0 0 32 32" fill="none" xmlns="http://www.w3.org/2000/svg">
<path d="M15.5435 6.3913C15.5435 6.09149 15.6626 5.80396 15.8746 5.59197C16.0866 5.37997 16.3741 5.26087 16.6739 5.26087C16.9737 5.26087 17.2612 5.37997 17.4732 5.59197C17.6852 5.80396 17.8043 6.09149 17.8043 6.3913H20.0652C20.0652 5.49187 19.7079 4.62928 19.0719 3.99329C18.4359 3.3573 17.5733 3 16.6739 3C15.7745 3 14.9119 3.3573 14.2759 3.99329C13.6399 4.62928 13.2826 5.49187 13.2826 6.3913H15.5435Z" fill="#041E4A"/>
<path fill-rule="evenodd" clip-rule="evenodd" d="M21.1957 6.39136H24.1348C24.8543 6.39136 25.5444 6.6772 26.0532 7.18599C26.562 7.69478 26.8478 8.38486 26.8478 9.1044V26.287C26.8478 27.0066 26.562 27.6966 26.0532 28.2054C25.5444 28.7142 24.8543 29.0001 24.1348 29.0001H9.21304C8.85676 29.0001 8.50397 28.9299 8.17481 28.7935C7.84565 28.6572 7.54656 28.4573 7.29463 28.2054C6.78584 27.6966 6.5 27.0066 6.5 26.287V9.1044C6.5 8.74812 6.57018 8.39533 6.70652 8.06616C6.84286 7.737 7.0427 7.43792 7.29463 7.18599C7.80343 6.6772 8.4935 6.39136 9.21304 6.39136H12.1522V7.74788C12.1522 7.98773 12.2475 8.21775 12.4171 8.38735C12.5867 8.55695 12.8167 8.65223 13.0565 8.65223H20.2913C20.5312 8.65223 20.7612 8.55695 20.9308 8.38735C21.1004 8.21775 21.1957 7.98773 21.1957 7.74788V6.39136ZM11.0217 14.3044C10.7219 14.3044 10.4344 14.4235 10.2224 14.6355C10.0104 14.8475 9.8913 15.135 9.8913 15.4348C9.8913 15.7346 10.0104 16.0222 10.2224 16.2342C10.4344 16.4462 10.7219 16.5653 11.0217 16.5653H22.3261C22.6259 16.5653 22.9134 16.4462 23.1254 16.2342C23.3374 16.0222 23.4565 15.7346 23.4565 15.4348C23.4565 15.135 23.3374 14.8475 23.1254 14.6355C22.9134 14.4235 22.6259 14.3044 22.3261 14.3044H11.0217ZM11.0217 17.6957C10.7219 17.6957 10.4344 17.8148 10.2224 18.0268C10.0104 18.2388 9.8913 18.5263 9.8913 18.8261C9.8913 19.1259 10.0104 19.4135 10.2224 19.6255C10.4344 19.8375 10.7219 19.9566 11.0217 19.9566H22.3261C22.6259 19.9566 22.9134 19.8375 23.1254 19.6255C23.3374 19.4135 23.4565 19.1259 23.4565 18.8261C23.4565 18.5263 23.3374 18.2388 23.1254 18.0268C22.9134 17.8148 22.6259 17.6957 22.3261 17.6957H11.0217ZM11.0217 21.087C10.7219 21.087 10.4344 21.2061 10.2224 21.4181C10.0104 21.6301 9.8913 21.9176 9.8913 22.2174C9.8913 22.5173 10.0104 22.8048 10.2224 23.0168C10.4344 23.2288 10.7219 23.3479 11.0217 23.3479H17.8043C18.1042 23.3479 18.3917 23.2288 18.6037 23.0168C18.8157 22.8048 18.9348 22.5173 18.9348 22.2174C18.9348 21.9176 18.8157 21.6301 18.6037 21.4181C18.3917 21.2061 18.1042 21.087 17.8043 21.087H11.0217Z" fill="#041E4A"/>
</svg>
