<svg width="32" height="32" viewBox="0 0 32 32" fill="none" xmlns="http://www.w3.org/2000/svg">
<g opacity="0.6">
<path opacity="0.6" d="M14.0529 24.3908L12.8609 28H11.3377L15.245 16.5431H17L20.9072 28H19.3178L18.1258 24.3908H14.0529ZM17.8278 23.2318L16.7019 19.9537C16.437 19.1921 16.2715 18.5298 16.1059 17.8676H16.0728C15.9072 18.5298 15.7417 19.2583 15.5099 19.9537L14.3841 23.2649H17.8278V23.2318Z" fill="#041E4A"/>
<path opacity="0.6" d="M18.1258 6.60927L19.351 3H20.9404L17.0331 14.457H15.2781L11.3377 3H12.8609L14.0529 6.60927H18.1258ZM14.3841 7.76821L15.5099 11.0795C15.7417 11.7748 15.9072 12.5033 16.0728 13.1656H16.1059C16.2715 12.5033 16.437 11.8079 16.7019 11.0795L17.8278 7.80132H14.3841V7.76821Z" fill="#041E4A"/>
</g>
<path d="M28.7881 22.6357H3.49007C2.66225 22.6357 2 21.9735 2 21.1457V5.28474C2 4.45693 2.66225 3.79468 3.49007 3.79468H28.7881C29.6159 3.79468 30.2781 4.45693 30.2781 5.28474V21.1457C30.2781 21.9735 29.6159 22.6357 28.7881 22.6357Z" fill="#041E4A"/>
</svg>
