<svg width="32" height="32" viewBox="0 0 32 32" fill="none" xmlns="http://www.w3.org/2000/svg">
<path fill-rule="evenodd" clip-rule="evenodd" d="M29.3334 16C29.3334 23.3637 23.3638 29.3333 16 29.3333C8.63622 29.3333 2.66669 23.3637 2.66669 16C2.66669 8.63616 8.63622 2.66663 16 2.66663C23.3638 2.66663 29.3334 8.63616 29.3334 16ZM16 10.3333C15.1716 10.3333 14.5 11.0049 14.5 11.8333C14.5 12.3856 14.0523 12.8333 13.5 12.8333C12.9477 12.8333 12.5 12.3856 12.5 11.8333C12.5 9.90029 14.0671 8.33329 16 8.33329C17.933 8.33329 19.5 9.90029 19.5 11.8333C19.5 12.7811 19.122 13.6426 18.5107 14.272C18.3876 14.3985 18.2703 14.5158 18.1583 14.6277C17.8706 14.9152 17.6184 15.167 17.3972 15.4513C17.1052 15.8265 17 16.1024 17 16.3333V17.3333C17 17.8856 16.5523 18.3333 16 18.3333C15.4478 18.3333 15 17.8856 15 17.3333V16.3333C15 15.4597 15.4067 14.7525 15.819 14.2229C16.1239 13.831 16.5072 13.4484 16.8184 13.1379C16.9123 13.0442 16.9995 12.9571 17.076 12.8783C17.3395 12.6072 17.5 12.24 17.5 11.8333C17.5 11.0049 16.8284 10.3333 16 10.3333ZM16 22.6666C16.7364 22.6666 17.3334 22.0697 17.3334 21.3333C17.3334 20.5969 16.7364 20 16 20C15.2636 20 14.6667 20.5969 14.6667 21.3333C14.6667 22.0697 15.2636 22.6666 16 22.6666Z" fill="#041E4A"/>
</svg>
