<svg width="32" height="32" viewBox="0 0 32 32" fill="none" xmlns="http://www.w3.org/2000/svg">
<path fill-rule="evenodd" clip-rule="evenodd" d="M4.47721 17.0383C3.66363 18.2935 3.99941 20.0388 4.67097 23.5293C5.1544 26.0421 5.39612 27.2984 6.23364 28.1321C6.45093 28.3485 6.69405 28.5403 6.95813 28.7036C7.97593 29.3332 9.32719 29.3332 12.0297 29.3332H21.3036C24.0061 29.3332 25.3575 29.3332 26.3752 28.7036C26.6393 28.5403 26.8824 28.3485 27.0997 28.1321C27.9372 27.2984 28.1789 26.0421 28.6624 23.5293C29.3339 20.0388 29.6697 18.2935 28.8561 17.0383C28.6485 16.7179 28.3924 16.428 28.0961 16.1776C26.9348 15.1967 25.0577 15.1967 21.3036 15.1967H12.0297C8.27556 15.1967 6.39851 15.1967 5.23723 16.1776C4.94088 16.428 4.68484 16.7179 4.47721 17.0383ZM12.9269 22.9075C12.9269 22.3752 13.3835 21.9436 13.9468 21.9436H19.3864C19.9496 21.9436 20.4063 22.3752 20.4063 22.9075C20.4063 23.4397 19.9496 23.8713 19.3864 23.8713H13.9468C13.3835 23.8713 12.9269 23.4397 12.9269 22.9075Z" fill="#041E4A"/>
<path opacity="0.5" d="M4.76828 16.6461C4.9103 16.4781 5.06714 16.3213 5.23724 16.1776C6.39852 15.1966 8.27558 15.1966 12.0297 15.1966H21.3036C25.0578 15.1966 26.9348 15.1966 28.0962 16.1776C28.2667 16.3217 28.4239 16.4789 28.5663 16.6476V13.0077C28.5663 11.7958 28.5663 10.7903 28.4526 9.9887C28.3326 9.14268 28.0708 8.39273 27.4452 7.77656C27.3432 7.67605 27.2355 7.58065 27.1227 7.49072C26.4403 6.94693 25.6223 6.72456 24.6963 6.6214C23.8042 6.52202 22.6803 6.52205 21.3026 6.52206H20.8323C19.5228 6.52206 19.0534 6.51445 18.6282 6.40706C18.3783 6.34398 18.1387 6.25589 17.9136 6.145C17.5347 5.95818 17.2044 5.67678 16.277 4.85505L15.6448 4.295C15.3794 4.05981 15.1983 3.89929 15.0042 3.75669C14.1712 3.14501 13.1571 2.77505 12.0953 2.68708C11.848 2.6666 11.5958 2.66661 11.2181 2.66665L11.0629 2.66664C10.2086 2.66649 9.64488 2.6664 9.15538 2.74822C7.01558 3.10592 5.28524 4.60186 4.86378 6.58096C4.7679 7.03121 4.76804 7.54709 4.76827 8.29133L4.76828 16.6461Z" fill="#041E4A"/>
</svg>
