<svg width="32" height="32" viewBox="0 0 32 32" fill="none" xmlns="http://www.w3.org/2000/svg">
<path d="M4.95721 8.49471C4.95721 10.567 6.62218 12.2696 8.7277 12.4226C8.05852 11.2578 7.6767 9.91861 7.6767 8.49471C7.6767 7.0708 8.05852 5.73148 8.7277 4.56677C6.62218 4.71984 4.95721 6.42238 4.95721 8.49471Z" fill="#041E4A"/>
<path d="M2 21.8592C2 22.5846 2.6088 23.1727 3.35974 23.1727H3.45266C4.50438 19.6501 7.09605 16.7522 10.4747 15.2057C10.0061 15.1113 9.52455 15.0621 9.03641 15.0621C5.15651 15.0621 2 18.1113 2 21.8592Z" fill="#041E4A"/>
<path d="M27.2118 8.49471C27.2118 6.42238 25.5469 4.71984 23.4413 4.56677C24.1105 5.73157 24.4923 7.0708 24.4923 8.49471C24.4923 9.91861 24.1105 11.2579 23.4413 12.4226C25.5469 12.2696 27.2118 10.567 27.2118 8.49471Z" fill="#041E4A"/>
<path d="M28.8093 23.1727C29.5602 23.1727 30.169 22.5846 30.169 21.8592C30.169 18.1113 27.0125 15.0621 23.1326 15.0621C22.6445 15.0621 22.1629 15.1113 21.6943 15.2057C25.0729 16.7522 27.6646 19.6501 28.7164 23.1727H28.8093Z" fill="#041E4A"/>
<path d="M16.0845 13.9895C17.9966 13.9895 19.69 13.0724 20.7219 11.6708C21.3826 10.7733 21.7729 9.6775 21.7729 8.49475C21.7729 7.312 21.3826 6.2162 20.7219 5.31865C19.69 3.91708 17.9966 3 16.0845 3C12.9479 3 10.3962 5.46489 10.3962 8.49475C10.3962 11.5246 12.9479 13.9895 16.0845 13.9895Z" fill="#041E4A"/>
<path d="M26.5093 26.6865C26.5093 25.4512 26.2772 24.2673 25.854 23.1728C24.6341 20.0182 21.8214 17.608 18.3658 16.86C17.6313 16.701 16.868 16.6165 16.0846 16.6165C10.3364 16.6165 5.65985 21.1339 5.65985 26.6865C5.65985 27.4119 6.26865 28 7.0196 28H25.1495C25.9005 28 26.5093 27.4119 26.5093 26.6865Z" fill="#041E4A"/>
</svg>
